<mxfile host="app.diagrams.net" agent="Mozilla/5.0 (X11; Linux x86_64) AppleWebKit/537.36 (KHTML, like Gecko) Chrome/125.0.0.0 Safari/537.36" version="24.7.17">
  <diagram name="Página-1" id="7_XbS7EMdbSgL2tTSl16">
    <mxGraphModel dx="1114" dy="548" grid="1" gridSize="10" guides="1" tooltips="1" connect="1" arrows="1" fold="1" page="1" pageScale="1" pageWidth="827" pageHeight="1169" math="0" shadow="0">
      <root>
        <mxCell id="0" />
        <mxCell id="1" parent="0" />
        <mxCell id="Hb5Eb5I1893k8JpFAH4S-1" value="HOME" style="rounded=0;whiteSpace=wrap;html=1;" vertex="1" parent="1">
          <mxGeometry x="290" y="10" width="120" height="20" as="geometry" />
        </mxCell>
        <mxCell id="Hb5Eb5I1893k8JpFAH4S-2" value="PRODUCTOS" style="rounded=0;whiteSpace=wrap;html=1;" vertex="1" parent="1">
          <mxGeometry x="60" y="100" width="120" height="20" as="geometry" />
        </mxCell>
        <mxCell id="Hb5Eb5I1893k8JpFAH4S-3" value="LOGIN" style="rounded=0;whiteSpace=wrap;html=1;" vertex="1" parent="1">
          <mxGeometry x="530" y="100" width="120" height="20" as="geometry" />
        </mxCell>
        <mxCell id="Hb5Eb5I1893k8JpFAH4S-6" value="SOBRE NOSOTROS" style="rounded=0;whiteSpace=wrap;html=1;" vertex="1" parent="1">
          <mxGeometry x="220" y="100" width="120" height="20" as="geometry" />
        </mxCell>
        <mxCell id="Hb5Eb5I1893k8JpFAH4S-8" value="CESTA" style="rounded=0;whiteSpace=wrap;html=1;" vertex="1" parent="1">
          <mxGeometry x="380" y="100" width="120" height="20" as="geometry" />
        </mxCell>
        <mxCell id="Hb5Eb5I1893k8JpFAH4S-14" value="" style="edgeStyle=segmentEdgeStyle;endArrow=classic;html=1;curved=0;rounded=0;endSize=8;startSize=8;" edge="1" parent="1" target="Hb5Eb5I1893k8JpFAH4S-2">
          <mxGeometry width="50" height="50" relative="1" as="geometry">
            <mxPoint x="420" y="70" as="sourcePoint" />
            <mxPoint x="420" y="10" as="targetPoint" />
            <Array as="points">
              <mxPoint x="90" y="70" />
            </Array>
          </mxGeometry>
        </mxCell>
        <mxCell id="Hb5Eb5I1893k8JpFAH4S-15" value="" style="edgeStyle=segmentEdgeStyle;endArrow=classic;html=1;curved=0;rounded=0;endSize=8;startSize=8;entryX=0.425;entryY=0;entryDx=0;entryDy=0;entryPerimeter=0;" edge="1" parent="1" target="Hb5Eb5I1893k8JpFAH4S-3">
          <mxGeometry width="50" height="50" relative="1" as="geometry">
            <mxPoint x="420" y="70" as="sourcePoint" />
            <mxPoint x="690" y="90" as="targetPoint" />
          </mxGeometry>
        </mxCell>
        <mxCell id="Hb5Eb5I1893k8JpFAH4S-16" value="" style="endArrow=classic;html=1;rounded=0;entryX=0.5;entryY=0;entryDx=0;entryDy=0;" edge="1" parent="1" target="Hb5Eb5I1893k8JpFAH4S-6">
          <mxGeometry width="50" height="50" relative="1" as="geometry">
            <mxPoint x="280" y="70" as="sourcePoint" />
            <mxPoint x="330" y="20" as="targetPoint" />
          </mxGeometry>
        </mxCell>
        <mxCell id="Hb5Eb5I1893k8JpFAH4S-17" value="" style="endArrow=classic;html=1;rounded=0;entryX=0.5;entryY=0;entryDx=0;entryDy=0;" edge="1" parent="1">
          <mxGeometry width="50" height="50" relative="1" as="geometry">
            <mxPoint x="430" y="70" as="sourcePoint" />
            <mxPoint x="430" y="100" as="targetPoint" />
          </mxGeometry>
        </mxCell>
        <mxCell id="Hb5Eb5I1893k8JpFAH4S-19" value="PANADERÍA" style="rounded=0;whiteSpace=wrap;html=1;" vertex="1" parent="1">
          <mxGeometry x="90" y="150" width="90" height="20" as="geometry" />
        </mxCell>
        <mxCell id="Hb5Eb5I1893k8JpFAH4S-20" value="PASASTELERÍA" style="rounded=0;whiteSpace=wrap;html=1;" vertex="1" parent="1">
          <mxGeometry x="90" y="186" width="100" height="20" as="geometry" />
        </mxCell>
        <mxCell id="Hb5Eb5I1893k8JpFAH4S-21" value="EMPANADAS" style="rounded=0;whiteSpace=wrap;html=1;" vertex="1" parent="1">
          <mxGeometry x="90" y="225" width="90" height="20" as="geometry" />
        </mxCell>
        <mxCell id="Hb5Eb5I1893k8JpFAH4S-23" value="" style="edgeStyle=segmentEdgeStyle;endArrow=classic;html=1;curved=0;rounded=0;endSize=8;startSize=8;entryX=0;entryY=0.5;entryDx=0;entryDy=0;exitX=0.108;exitY=1.1;exitDx=0;exitDy=0;exitPerimeter=0;" edge="1" parent="1">
          <mxGeometry width="50" height="50" relative="1" as="geometry">
            <mxPoint x="72.95999999999998" y="120" as="sourcePoint" />
            <mxPoint x="90" y="157.99999999999997" as="targetPoint" />
            <Array as="points">
              <mxPoint x="70" y="120" />
              <mxPoint x="70" y="158" />
            </Array>
          </mxGeometry>
        </mxCell>
        <mxCell id="Hb5Eb5I1893k8JpFAH4S-24" value="" style="edgeStyle=segmentEdgeStyle;endArrow=classic;html=1;curved=0;rounded=0;endSize=8;startSize=8;entryX=0;entryY=0.5;entryDx=0;entryDy=0;exitX=0.108;exitY=1.1;exitDx=0;exitDy=0;exitPerimeter=0;" edge="1" parent="1">
          <mxGeometry width="50" height="50" relative="1" as="geometry">
            <mxPoint x="72.95999999999998" y="158" as="sourcePoint" />
            <mxPoint x="90" y="195.99999999999997" as="targetPoint" />
            <Array as="points">
              <mxPoint x="70" y="158" />
              <mxPoint x="70" y="196" />
            </Array>
          </mxGeometry>
        </mxCell>
        <mxCell id="Hb5Eb5I1893k8JpFAH4S-25" value="" style="edgeStyle=segmentEdgeStyle;endArrow=classic;html=1;curved=0;rounded=0;endSize=8;startSize=8;entryX=0;entryY=0.5;entryDx=0;entryDy=0;exitX=0.108;exitY=1.1;exitDx=0;exitDy=0;exitPerimeter=0;" edge="1" parent="1">
          <mxGeometry width="50" height="50" relative="1" as="geometry">
            <mxPoint x="72.95999999999998" y="196" as="sourcePoint" />
            <mxPoint x="90" y="233.99999999999997" as="targetPoint" />
            <Array as="points">
              <mxPoint x="70" y="196" />
              <mxPoint x="70" y="234" />
            </Array>
          </mxGeometry>
        </mxCell>
        <mxCell id="Hb5Eb5I1893k8JpFAH4S-27" value="" style="edgeStyle=segmentEdgeStyle;endArrow=classic;html=1;curved=0;rounded=0;endSize=8;startSize=8;entryX=0;entryY=0.5;entryDx=0;entryDy=0;exitX=0.108;exitY=1.1;exitDx=0;exitDy=0;exitPerimeter=0;" edge="1" parent="1">
          <mxGeometry width="50" height="50" relative="1" as="geometry">
            <mxPoint x="272.96" y="120" as="sourcePoint" />
            <mxPoint x="290" y="157.99999999999997" as="targetPoint" />
            <Array as="points">
              <mxPoint x="270" y="120" />
              <mxPoint x="270" y="158" />
            </Array>
          </mxGeometry>
        </mxCell>
        <mxCell id="Hb5Eb5I1893k8JpFAH4S-29" value="CONTACTO" style="rounded=0;whiteSpace=wrap;html=1;" vertex="1" parent="1">
          <mxGeometry x="290" y="150" width="90" height="20" as="geometry" />
        </mxCell>
        <mxCell id="Hb5Eb5I1893k8JpFAH4S-33" value="" style="line;strokeWidth=2;direction=south;html=1;" vertex="1" parent="1">
          <mxGeometry x="346" y="30" width="10" height="40" as="geometry" />
        </mxCell>
      </root>
    </mxGraphModel>
  </diagram>
</mxfile>
